<svg xmlns="http://www.w3.org/2000/svg" width="800" height="533" viewBox="0 0 1600 1066" font-family="system-ui,-apple-system,'Helvetica Neue',Helvetica,Arial,sans-serif"><defs>
<pattern id="hatch" width="14" height="14" patternUnits="userSpaceOnUse" patternTransform="rotate(45)">
<rect width="14" height="14" fill="#ffffff" fill-opacity="0.35"/><line x1="0" y1="0" x2="0" y2="14" stroke="#4a443f" stroke-width="2.4" stroke-opacity="0.7"/></pattern>
<pattern id="hatchR" width="14" height="14" patternUnits="userSpaceOnUse" patternTransform="rotate(45)">
<rect width="14" height="14" fill="#f6dfe2"/><line x1="0" y1="0" x2="0" y2="14" stroke="#b0303f" stroke-width="2.6"/></pattern>
<pattern id="hatchI" width="14" height="14" patternUnits="userSpaceOnUse" patternTransform="rotate(-45)">
<rect width="14" height="14" fill="#ede7de"/><line x1="0" y1="0" x2="0" y2="14" stroke="#4a443f" stroke-width="2.4"/></pattern>
<pattern id="hatchS" width="14" height="14" patternUnits="userSpaceOnUse" patternTransform="rotate(45)">
<rect width="14" height="14" fill="#e9c8a1"/><line x1="0" y1="0" x2="0" y2="14" stroke="#9c6b3f" stroke-width="2.4"/></pattern>
<pattern id="wall" width="12" height="12" patternUnits="userSpaceOnUse" patternTransform="rotate(45)">
<rect width="12" height="12" fill="#d9d2c7"/><line x1="0" y1="0" x2="0" y2="12" stroke="#4a443f" stroke-width="1.6"/></pattern>
<pattern id="estrich" width="40" height="40" patternUnits="userSpaceOnUse">
<rect width="40" height="40" fill="#dedad3"/><circle cx="8" cy="10" r="2.2" fill="#a59d92"/><circle cx="28" cy="22" r="1.6" fill="#a59d92"/><circle cx="17" cy="33" r="2" fill="#a59d92"/><circle cx="34" cy="5" r="1.4" fill="#a59d92"/></pattern>
<marker id="aI" viewBox="0 0 10 10" refX="9" refY="5" markerWidth="7" markerHeight="7" orient="auto-start-reverse"><path d="M0,0 L10,5 L0,10 z" fill="#1d1a17"/></marker><marker id="aR" viewBox="0 0 10 10" refX="9" refY="5" markerWidth="7" markerHeight="7" orient="auto-start-reverse"><path d="M0,0 L10,5 L0,10 z" fill="#b0303f"/></marker><marker id="aG" viewBox="0 0 10 10" refX="9" refY="5" markerWidth="7" markerHeight="7" orient="auto-start-reverse"><path d="M0,0 L10,5 L0,10 z" fill="#2f7a4c"/></marker><marker id="aL" viewBox="0 0 10 10" refX="9" refY="5" markerWidth="7" markerHeight="7" orient="auto-start-reverse"><path d="M0,0 L10,5 L0,10 z" fill="#4a443f"/></marker></defs><rect width="1600" height="1066" fill="#ffffff"/><rect x="100" y="90" width="600" height="450" fill="#f3e2cc" stroke="#1d1a17" stroke-width="10" /><rect x="700" y="90" width="360" height="450" fill="#f3e2cc" stroke="#1d1a17" stroke-width="10" /><rect x="1060" y="90" width="440" height="450" fill="#f3e2cc" stroke="#1d1a17" stroke-width="10" /><rect x="100" y="540" width="1400" height="150" fill="#f3e2cc" stroke="#1d1a17" stroke-width="10" /><rect x="100" y="690" width="600" height="300" fill="#f3e2cc" stroke="#1d1a17" stroke-width="10" /><rect x="700" y="690" width="360" height="300" fill="#ede7de" stroke="#1d1a17" stroke-width="10" /><rect x="1060" y="690" width="440" height="300" fill="#ede7de" stroke="#1d1a17" stroke-width="10" /><line x1="300" y1="540" x2="390" y2="540" stroke="#f3e2cc" stroke-width="14" /><line x1="820" y1="540" x2="910" y2="540" stroke="#f3e2cc" stroke-width="14" /><line x1="1200" y1="540" x2="1290" y2="540" stroke="#f3e2cc" stroke-width="14" /><line x1="300" y1="690" x2="390" y2="690" stroke="#f3e2cc" stroke-width="14" /><line x1="820" y1="690" x2="910" y2="690" stroke="#f3e2cc" stroke-width="14" /><line x1="1200" y1="690" x2="1290" y2="690" stroke="#f3e2cc" stroke-width="14" /><line x1="100" y1="590" x2="100" y2="650" stroke="#ffffff" stroke-width="14" /><text x="400.0" y="295.0" font-size="32" text-anchor="middle" font-weight="700" fill="#1d1a17">Wohnzimmer</text><text x="400.0" y="337.0" font-size="26" text-anchor="middle" font-weight="400" fill="#4a443f">Velours, Kurzflor,</text><text x="400.0" y="371.0" font-size="26" text-anchor="middle" font-weight="400" fill="#4a443f">Schlinge</text><text x="880.0" y="295.0" font-size="32" text-anchor="middle" font-weight="700" fill="#1d1a17">Arbeitszimmer</text><text x="880.0" y="337.0" font-size="26" text-anchor="middle" font-weight="400" fill="#4a443f">nur „stuhlrollen-</text><text x="880.0" y="371.0" font-size="26" text-anchor="middle" font-weight="400" fill="#4a443f">geeignet“</text><text x="1280.0" y="295.0" font-size="32" text-anchor="middle" font-weight="700" fill="#1d1a17">Schlafzimmer</text><text x="1280.0" y="337.0" font-size="26" text-anchor="middle" font-weight="400" fill="#4a443f">Velours, Hochflor,</text><text x="1280.0" y="371.0" font-size="26" text-anchor="middle" font-weight="400" fill="#4a443f">Wolle</text><text x="800.0" y="602" font-size="32" text-anchor="middle" font-weight="700" fill="#1d1a17">Flur</text><text x="800.0" y="644" font-size="26" text-anchor="middle" font-weight="400" fill="#4a443f">dichte Qualität, Nutzungsklasse 23</text><text x="400.0" y="820.0" font-size="32" text-anchor="middle" font-weight="700" fill="#1d1a17">Kinderzimmer</text><text x="400.0" y="862.0" font-size="26" text-anchor="middle" font-weight="400" fill="#4a443f">Kurzflor, dichter Velours</text><text x="880.0" y="820.0" font-size="32" text-anchor="middle" font-weight="700" fill="#8a8178">Bad</text><text x="880.0" y="862.0" font-size="26" text-anchor="middle" font-weight="400" fill="#8a8178">kein Teppichboden</text><text x="1280.0" y="820.0" font-size="32" text-anchor="middle" font-weight="700" fill="#8a8178">Küche</text><text x="1280.0" y="862.0" font-size="26" text-anchor="middle" font-weight="400" fill="#8a8178">kein Teppichboden</text></svg>