<svg xmlns="http://www.w3.org/2000/svg" width="800" height="533" viewBox="0 0 1600 1066" font-family="system-ui,-apple-system,'Helvetica Neue',Helvetica,Arial,sans-serif"><defs>
<pattern id="hatch" width="14" height="14" patternUnits="userSpaceOnUse" patternTransform="rotate(45)">
<rect width="14" height="14" fill="#ffffff" fill-opacity="0.35"/><line x1="0" y1="0" x2="0" y2="14" stroke="#4a443f" stroke-width="2.4" stroke-opacity="0.7"/></pattern>
<pattern id="hatchR" width="14" height="14" patternUnits="userSpaceOnUse" patternTransform="rotate(45)">
<rect width="14" height="14" fill="#f6dfe2"/><line x1="0" y1="0" x2="0" y2="14" stroke="#b0303f" stroke-width="2.6"/></pattern>
<pattern id="hatchI" width="14" height="14" patternUnits="userSpaceOnUse" patternTransform="rotate(-45)">
<rect width="14" height="14" fill="#ede7de"/><line x1="0" y1="0" x2="0" y2="14" stroke="#4a443f" stroke-width="2.4"/></pattern>
<pattern id="hatchS" width="14" height="14" patternUnits="userSpaceOnUse" patternTransform="rotate(45)">
<rect width="14" height="14" fill="#e9c8a1"/><line x1="0" y1="0" x2="0" y2="14" stroke="#9c6b3f" stroke-width="2.4"/></pattern>
<pattern id="wall" width="12" height="12" patternUnits="userSpaceOnUse" patternTransform="rotate(45)">
<rect width="12" height="12" fill="#d9d2c7"/><line x1="0" y1="0" x2="0" y2="12" stroke="#4a443f" stroke-width="1.6"/></pattern>
<pattern id="estrich" width="40" height="40" patternUnits="userSpaceOnUse">
<rect width="40" height="40" fill="#dedad3"/><circle cx="8" cy="10" r="2.2" fill="#a59d92"/><circle cx="28" cy="22" r="1.6" fill="#a59d92"/><circle cx="17" cy="33" r="2" fill="#a59d92"/><circle cx="34" cy="5" r="1.4" fill="#a59d92"/></pattern>
<marker id="aI" viewBox="0 0 10 10" refX="9" refY="5" markerWidth="7" markerHeight="7" orient="auto-start-reverse"><path d="M0,0 L10,5 L0,10 z" fill="#1d1a17"/></marker><marker id="aR" viewBox="0 0 10 10" refX="9" refY="5" markerWidth="7" markerHeight="7" orient="auto-start-reverse"><path d="M0,0 L10,5 L0,10 z" fill="#b0303f"/></marker><marker id="aG" viewBox="0 0 10 10" refX="9" refY="5" markerWidth="7" markerHeight="7" orient="auto-start-reverse"><path d="M0,0 L10,5 L0,10 z" fill="#2f7a4c"/></marker><marker id="aL" viewBox="0 0 10 10" refX="9" refY="5" markerWidth="7" markerHeight="7" orient="auto-start-reverse"><path d="M0,0 L10,5 L0,10 z" fill="#4a443f"/></marker></defs><rect width="1600" height="1066" fill="#ffffff"/><rect x="100" y="720" width="660" height="90" fill="url(#hatchS)" stroke="#4a443f" stroke-width="2" /><text x="430" y="778" font-size="26" text-anchor="middle" font-weight="600" fill="#1d1a17" style="paint-order:stroke;stroke:#fff;stroke-width:7px;stroke-linejoin:round">Teppichboden</text><path d="M260,570 A170,170 0 0 1 600,570 L580,570 A150,150 0 0 0 280,570 Z" fill="#6d655d" stroke-linejoin="round" stroke-linecap="round" /><rect x="400" y="240" width="60" height="170" fill="#6d655d" rx="10"/><circle cx="430" cy="570" r="150" fill="#3a3530" stroke="#4a443f" stroke-width="3"/><circle cx="430" cy="570" r="30" fill="#c7ccd1" stroke="#4a443f" stroke-width="3"/><rect x="840" y="720" width="660" height="90" fill="#ede7de" stroke="#4a443f" stroke-width="2" /><text x="1170" y="778" font-size="26" text-anchor="middle" font-weight="600" fill="#1d1a17" style="paint-order:stroke;stroke:#fff;stroke-width:7px;stroke-linejoin:round">Hartboden</text><path d="M1000,570 A170,170 0 0 1 1340,570 L1320,570 A150,150 0 0 0 1020,570 Z" fill="#6d655d" stroke-linejoin="round" stroke-linecap="round" /><rect x="1140" y="240" width="60" height="170" fill="#6d655d" rx="10"/><circle cx="1170" cy="570" r="150" fill="#a7b6c2" stroke="#4a443f" stroke-width="3"/><circle cx="1170" cy="570" r="116" fill="#3a3530" stroke="#4a443f" stroke-width="2"/><circle cx="1170" cy="570" r="30" fill="#c7ccd1" stroke="#4a443f" stroke-width="3"/><text x="430" y="900" font-size="36" text-anchor="middle" font-weight="700" fill="#1d1a17">Typ H – Teppichboden</text><text x="430" y="945" font-size="28" text-anchor="middle" font-weight="400" fill="#4a443f">harte Rolle</text><text x="1170" y="900" font-size="36" text-anchor="middle" font-weight="700" fill="#1d1a17">Typ W – Hartboden</text><text x="1170" y="945" font-size="28" text-anchor="middle" font-weight="400" fill="#4a443f">weiche Lauffläche</text><line x1="1300" y1="630" x2="1390" y2="610" stroke="#4a443f" stroke-width="1.6" /><text x="1398" y="600" font-size="24" text-anchor="start" font-weight="400" fill="#4a443f">weiche</text><text x="1398" y="628" font-size="24" text-anchor="start" font-weight="400" fill="#4a443f">Lauffläche</text><text x="800" y="1030" font-size="24" text-anchor="middle" font-weight="400" fill="#8a8178">Stuhlrollen nach DIN EN 12529</text></svg>