<svg xmlns="http://www.w3.org/2000/svg" width="800" height="533" viewBox="0 0 1600 1066" font-family="system-ui,-apple-system,'Helvetica Neue',Helvetica,Arial,sans-serif"><defs>
<pattern id="hatch" width="14" height="14" patternUnits="userSpaceOnUse" patternTransform="rotate(45)">
<rect width="14" height="14" fill="#ffffff" fill-opacity="0.35"/><line x1="0" y1="0" x2="0" y2="14" stroke="#4a443f" stroke-width="2.4" stroke-opacity="0.7"/></pattern>
<pattern id="hatchR" width="14" height="14" patternUnits="userSpaceOnUse" patternTransform="rotate(45)">
<rect width="14" height="14" fill="#f6dfe2"/><line x1="0" y1="0" x2="0" y2="14" stroke="#b0303f" stroke-width="2.6"/></pattern>
<pattern id="hatchI" width="14" height="14" patternUnits="userSpaceOnUse" patternTransform="rotate(-45)">
<rect width="14" height="14" fill="#ede7de"/><line x1="0" y1="0" x2="0" y2="14" stroke="#4a443f" stroke-width="2.4"/></pattern>
<pattern id="hatchS" width="14" height="14" patternUnits="userSpaceOnUse" patternTransform="rotate(45)">
<rect width="14" height="14" fill="#e9c8a1"/><line x1="0" y1="0" x2="0" y2="14" stroke="#9c6b3f" stroke-width="2.4"/></pattern>
<pattern id="wall" width="12" height="12" patternUnits="userSpaceOnUse" patternTransform="rotate(45)">
<rect width="12" height="12" fill="#d9d2c7"/><line x1="0" y1="0" x2="0" y2="12" stroke="#4a443f" stroke-width="1.6"/></pattern>
<pattern id="estrich" width="40" height="40" patternUnits="userSpaceOnUse">
<rect width="40" height="40" fill="#dedad3"/><circle cx="8" cy="10" r="2.2" fill="#a59d92"/><circle cx="28" cy="22" r="1.6" fill="#a59d92"/><circle cx="17" cy="33" r="2" fill="#a59d92"/><circle cx="34" cy="5" r="1.4" fill="#a59d92"/></pattern>
<marker id="aI" viewBox="0 0 10 10" refX="9" refY="5" markerWidth="7" markerHeight="7" orient="auto-start-reverse"><path d="M0,0 L10,5 L0,10 z" fill="#1d1a17"/></marker><marker id="aR" viewBox="0 0 10 10" refX="9" refY="5" markerWidth="7" markerHeight="7" orient="auto-start-reverse"><path d="M0,0 L10,5 L0,10 z" fill="#b0303f"/></marker><marker id="aG" viewBox="0 0 10 10" refX="9" refY="5" markerWidth="7" markerHeight="7" orient="auto-start-reverse"><path d="M0,0 L10,5 L0,10 z" fill="#2f7a4c"/></marker><marker id="aL" viewBox="0 0 10 10" refX="9" refY="5" markerWidth="7" markerHeight="7" orient="auto-start-reverse"><path d="M0,0 L10,5 L0,10 z" fill="#4a443f"/></marker></defs><rect width="1600" height="1066" fill="#ffffff"/><path d="M80,600 L240,600 C320,600 340,640 410,640 C480,640 500,600 580,600 L740,600 L740,800 L80,800 Z" fill="url(#estrich)" stroke="#4a443f" stroke-width="2.5" stroke-linejoin="round" stroke-linecap="round" /><path d="M80,584 L240,584 C320,584 340,624 410,624 C480,624 500,584 580,584 L740,584 L740,600 L580,600 C500,600 480,640 410,640 C340,640 320,600 240,600 L80,600 Z" fill="#e9c8a1" stroke="#1d1a17" stroke-width="2.5" stroke-linejoin="round" stroke-linecap="round" /><line x1="410" y1="450" x2="410" y2="610" stroke="#b0303f" stroke-width="3" marker-end="url(#aR)" /><text x="410" y="435" font-size="28" text-anchor="middle" font-weight="700" fill="#b0303f">Mulde zeichnet sich ab</text><text x="410" y="120" font-size="34" text-anchor="middle" font-weight="700" fill="#1d1a17">Klebevinyl</text><text x="410" y="165" font-size="28" text-anchor="middle" font-weight="400" fill="#4a443f">folgt jeder Mulde</text><text x="410" y="890" font-size="28" text-anchor="middle" font-weight="600" fill="#1d1a17">→ vorher vollflächig spachteln</text><path d="M860,600 L1020,600 C1100,600 1120,640 1190,640 C1260,640 1280,600 1360,600 L1520,600 L1520,800 L860,800 Z" fill="url(#estrich)" stroke="#4a443f" stroke-width="2.5" stroke-linejoin="round" stroke-linecap="round" /><rect x="860" y="590" width="660" height="10" fill="#b9c7b2" stroke="#4a443f" stroke-width="1.5" /><rect x="860" y="546" width="329" height="44" fill="#e9c8a1" stroke="#1d1a17" stroke-width="2.5" /><rect x="1191" y="546" width="329" height="44" fill="#dcb48a" stroke="#1d1a17" stroke-width="2.5" /><line x1="1190" y1="396" x2="1190" y2="536" stroke="#b0303f" stroke-width="5" marker-end="url(#aR)" /><path d="M1070,506 Q1130,456 1176,486" fill="none" stroke="#b0303f" stroke-width="3" stroke-linejoin="round" stroke-linecap="round" marker-end="url(#aR)"/><path d="M1310,506 Q1250,456 1204,486" fill="none" stroke="#b0303f" stroke-width="3" stroke-linejoin="round" stroke-linecap="round" marker-end="url(#aR)"/><text x="1190" y="341" font-size="28" text-anchor="middle" font-weight="700" fill="#b0303f">Biegebelastung an</text><text x="1190" y="376" font-size="28" text-anchor="middle" font-weight="700" fill="#b0303f">der Klickverbindung</text><text x="1190" y="120" font-size="34" text-anchor="middle" font-weight="700" fill="#1d1a17">Klickvinyl</text><text x="1190" y="165" font-size="28" text-anchor="middle" font-weight="400" fill="#4a443f">überbrückt kleine Mulden</text><text x="1190" y="890" font-size="28" text-anchor="middle" font-weight="600" fill="#1d1a17">→ Verbindung darf nicht federn</text><text x="1520" y="1040" font-size="22" text-anchor="end" font-weight="400" fill="#8a8178" font-style="italic">Mulde stark überhöht dargestellt</text></svg>