<svg xmlns="http://www.w3.org/2000/svg" width="800" height="533" viewBox="0 0 1600 1066" font-family="system-ui,-apple-system,'Helvetica Neue',Helvetica,Arial,sans-serif"><defs>
<pattern id="hatch" width="14" height="14" patternUnits="userSpaceOnUse" patternTransform="rotate(45)">
<rect width="14" height="14" fill="#ffffff" fill-opacity="0.35"/><line x1="0" y1="0" x2="0" y2="14" stroke="#4a443f" stroke-width="2.4" stroke-opacity="0.7"/></pattern>
<pattern id="hatchR" width="14" height="14" patternUnits="userSpaceOnUse" patternTransform="rotate(45)">
<rect width="14" height="14" fill="#f6dfe2"/><line x1="0" y1="0" x2="0" y2="14" stroke="#b0303f" stroke-width="2.6"/></pattern>
<pattern id="hatchI" width="14" height="14" patternUnits="userSpaceOnUse" patternTransform="rotate(-45)">
<rect width="14" height="14" fill="#ede7de"/><line x1="0" y1="0" x2="0" y2="14" stroke="#4a443f" stroke-width="2.4"/></pattern>
<pattern id="hatchS" width="14" height="14" patternUnits="userSpaceOnUse" patternTransform="rotate(45)">
<rect width="14" height="14" fill="#e9c8a1"/><line x1="0" y1="0" x2="0" y2="14" stroke="#9c6b3f" stroke-width="2.4"/></pattern>
<pattern id="wall" width="12" height="12" patternUnits="userSpaceOnUse" patternTransform="rotate(45)">
<rect width="12" height="12" fill="#d9d2c7"/><line x1="0" y1="0" x2="0" y2="12" stroke="#4a443f" stroke-width="1.6"/></pattern>
<pattern id="estrich" width="40" height="40" patternUnits="userSpaceOnUse">
<rect width="40" height="40" fill="#dedad3"/><circle cx="8" cy="10" r="2.2" fill="#a59d92"/><circle cx="28" cy="22" r="1.6" fill="#a59d92"/><circle cx="17" cy="33" r="2" fill="#a59d92"/><circle cx="34" cy="5" r="1.4" fill="#a59d92"/></pattern>
<marker id="aI" viewBox="0 0 10 10" refX="9" refY="5" markerWidth="7" markerHeight="7" orient="auto-start-reverse"><path d="M0,0 L10,5 L0,10 z" fill="#1d1a17"/></marker><marker id="aR" viewBox="0 0 10 10" refX="9" refY="5" markerWidth="7" markerHeight="7" orient="auto-start-reverse"><path d="M0,0 L10,5 L0,10 z" fill="#b0303f"/></marker><marker id="aG" viewBox="0 0 10 10" refX="9" refY="5" markerWidth="7" markerHeight="7" orient="auto-start-reverse"><path d="M0,0 L10,5 L0,10 z" fill="#2f7a4c"/></marker><marker id="aL" viewBox="0 0 10 10" refX="9" refY="5" markerWidth="7" markerHeight="7" orient="auto-start-reverse"><path d="M0,0 L10,5 L0,10 z" fill="#4a443f"/></marker></defs><rect width="1600" height="1066" fill="#ffffff"/><rect x="70" y="180" width="335" height="700" fill="#f6f2ec" rx="18"/><rect x="215.5" y="340" width="44" height="170" fill="#fff" stroke="#4a443f" stroke-width="5" rx="22"/><circle cx="237.5" cy="530" r="40" fill="#b0303f" stroke="#4a443f" stroke-width="5"/><rect x="227.5" y="408.0" width="20" height="122.0" fill="#b0303f" /><line x1="259.5" y1="370" x2="277.5" y2="370" stroke="#4a443f" stroke-width="3" /><line x1="259.5" y1="400" x2="277.5" y2="400" stroke="#4a443f" stroke-width="3" /><line x1="259.5" y1="430" x2="277.5" y2="430" stroke="#4a443f" stroke-width="3" /><line x1="259.5" y1="460" x2="277.5" y2="460" stroke="#4a443f" stroke-width="3" /><text x="237.5" y="720" font-size="28" text-anchor="middle" font-weight="400" fill="#4a443f">Raum und Material</text><text x="237.5" y="780" font-size="40" text-anchor="middle" font-weight="700" fill="#1d1a17">mind. 18 °C</text><rect x="445" y="180" width="335" height="700" fill="#f6f2ec" rx="18"/><rect x="590.5" y="300" width="44" height="170" fill="#fff" stroke="#4a443f" stroke-width="5" rx="22"/><circle cx="612.5" cy="490" r="40" fill="#b0303f" stroke="#4a443f" stroke-width="5"/><rect x="602.5" y="393.5" width="20" height="96.5" fill="#b0303f" /><line x1="634.5" y1="330" x2="652.5" y2="330" stroke="#4a443f" stroke-width="3" /><line x1="634.5" y1="360" x2="652.5" y2="360" stroke="#4a443f" stroke-width="3" /><line x1="634.5" y1="390" x2="652.5" y2="390" stroke="#4a443f" stroke-width="3" /><line x1="634.5" y1="420" x2="652.5" y2="420" stroke="#4a443f" stroke-width="3" /><rect x="482.5" y="550" width="260" height="40" fill="url(#estrich)" stroke="#4a443f" stroke-width="2" /><line x1="542.5" y1="540" x2="682.5" y2="540" stroke="#fff" stroke-width="0" /><text x="612.5" y="720" font-size="28" text-anchor="middle" font-weight="400" fill="#4a443f">Boden</text><text x="612.5" y="780" font-size="40" text-anchor="middle" font-weight="700" fill="#1d1a17">mind. 15 °C</text><rect x="820" y="180" width="335" height="700" fill="#f6f2ec" rx="18"/><circle cx="987.5" cy="470" r="110" fill="#fff" stroke="#4a443f" stroke-width="6"/><path d="M955.0,396.9 A80,80 0 0 1 1034.5,405.3" fill="none" stroke="#2f7a4c" stroke-width="18" stroke-linejoin="round" stroke-linecap="round" /><path d="M918.2,510.0 A80,80 0 1 1 1056.8,510.0" fill="none" stroke="#4a443f" stroke-width="3" stroke-linejoin="round" stroke-linecap="round" /><line x1="987.5" y1="470" x2="993.3574490332621" y2="400.2454998525347" stroke="#1d1a17" stroke-width="6" /><circle cx="987.5" cy="470" r="9" fill="#1d1a17"/><text x="987.5" y="540" font-size="30" text-anchor="middle" font-weight="700" fill="#4a443f">%</text><text x="987.5" y="720" font-size="28" text-anchor="middle" font-weight="400" fill="#4a443f">Luftfeuchte</text><text x="987.5" y="780" font-size="40" text-anchor="middle" font-weight="700" fill="#1d1a17">40–65 %</text><rect x="1195" y="180" width="335" height="700" fill="#f6f2ec" rx="18"/><circle cx="1302.5" cy="530" r="46" fill="#dcb48a" stroke="#1d1a17" stroke-width="3"/><circle cx="1302.5" cy="530" r="20" fill="none" stroke="#1d1a17" stroke-width="2"/><rect x="1302.5" y="484" width="190" height="92" fill="#e9c8a1" stroke="#1d1a17" stroke-width="3" /><rect x="1300.5" y="486" width="6" height="88" fill="#e9c8a1" /><circle cx="1402.5" cy="380" r="56" fill="#fff" stroke="#4a443f" stroke-width="6"/><line x1="1402.5" y1="380" x2="1402.5" y2="343.6" stroke="#1d1a17" stroke-width="6" /><line x1="1402.5" y1="380" x2="1430.5" y2="385.6" stroke="#1d1a17" stroke-width="6" /><circle cx="1402.5" cy="380" r="7" fill="#1d1a17"/><text x="1362.5" y="720" font-size="28" text-anchor="middle" font-weight="400" fill="#4a443f">akklimatisieren</text><text x="1362.5" y="780" font-size="40" text-anchor="middle" font-weight="700" fill="#1d1a17">24–48 Stunden</text><text x="800" y="120" font-size="34" text-anchor="middle" font-weight="700" fill="#1d1a17">Raumklima beim Verlegen</text></svg>