<svg xmlns="http://www.w3.org/2000/svg" width="800" height="533" viewBox="0 0 1600 1066" font-family="system-ui,-apple-system,'Helvetica Neue',Helvetica,Arial,sans-serif"><defs>
<pattern id="hatch" width="14" height="14" patternUnits="userSpaceOnUse" patternTransform="rotate(45)">
<rect width="14" height="14" fill="#ffffff" fill-opacity="0.35"/><line x1="0" y1="0" x2="0" y2="14" stroke="#4a443f" stroke-width="2.4" stroke-opacity="0.7"/></pattern>
<pattern id="hatchR" width="14" height="14" patternUnits="userSpaceOnUse" patternTransform="rotate(45)">
<rect width="14" height="14" fill="#f6dfe2"/><line x1="0" y1="0" x2="0" y2="14" stroke="#b0303f" stroke-width="2.6"/></pattern>
<pattern id="hatchI" width="14" height="14" patternUnits="userSpaceOnUse" patternTransform="rotate(-45)">
<rect width="14" height="14" fill="#ede7de"/><line x1="0" y1="0" x2="0" y2="14" stroke="#4a443f" stroke-width="2.4"/></pattern>
<pattern id="hatchS" width="14" height="14" patternUnits="userSpaceOnUse" patternTransform="rotate(45)">
<rect width="14" height="14" fill="#e9c8a1"/><line x1="0" y1="0" x2="0" y2="14" stroke="#9c6b3f" stroke-width="2.4"/></pattern>
<pattern id="wall" width="12" height="12" patternUnits="userSpaceOnUse" patternTransform="rotate(45)">
<rect width="12" height="12" fill="#d9d2c7"/><line x1="0" y1="0" x2="0" y2="12" stroke="#4a443f" stroke-width="1.6"/></pattern>
<pattern id="estrich" width="40" height="40" patternUnits="userSpaceOnUse">
<rect width="40" height="40" fill="#dedad3"/><circle cx="8" cy="10" r="2.2" fill="#a59d92"/><circle cx="28" cy="22" r="1.6" fill="#a59d92"/><circle cx="17" cy="33" r="2" fill="#a59d92"/><circle cx="34" cy="5" r="1.4" fill="#a59d92"/></pattern>
<marker id="aI" viewBox="0 0 10 10" refX="9" refY="5" markerWidth="7" markerHeight="7" orient="auto-start-reverse"><path d="M0,0 L10,5 L0,10 z" fill="#1d1a17"/></marker><marker id="aR" viewBox="0 0 10 10" refX="9" refY="5" markerWidth="7" markerHeight="7" orient="auto-start-reverse"><path d="M0,0 L10,5 L0,10 z" fill="#b0303f"/></marker><marker id="aG" viewBox="0 0 10 10" refX="9" refY="5" markerWidth="7" markerHeight="7" orient="auto-start-reverse"><path d="M0,0 L10,5 L0,10 z" fill="#2f7a4c"/></marker><marker id="aL" viewBox="0 0 10 10" refX="9" refY="5" markerWidth="7" markerHeight="7" orient="auto-start-reverse"><path d="M0,0 L10,5 L0,10 z" fill="#4a443f"/></marker></defs><rect width="1600" height="1066" fill="#ffffff"/><text x="800" y="150" font-size="36" text-anchor="middle" font-weight="700" fill="#1d1a17">So vermeiden Sie Wellen</text><rect x="160" y="260" width="1280" height="200" fill="#f6f2ec" rx="18"/><circle cx="270" cy="360" r="46" fill="#2f7a4c"/><path d="M249.3,362 l13.799999999999999,14.72 l25.3,-28.52" fill="none" stroke="#fff" stroke-width="9.200000000000001" stroke-linejoin="round" stroke-linecap="round" /><text x="360" y="372" font-size="36" text-anchor="start" font-weight="600" fill="#1d1a17">Untergrund trocken und eben</text><rect x="160" y="500" width="1280" height="200" fill="#f6f2ec" rx="18"/><circle cx="270" cy="600" r="46" fill="#2f7a4c"/><path d="M249.3,602 l13.799999999999999,14.72 l25.3,-28.52" fill="none" stroke="#fff" stroke-width="9.200000000000001" stroke-linejoin="round" stroke-linecap="round" /><text x="360" y="588" font-size="36" text-anchor="start" font-weight="600" fill="#1d1a17">24–48 Stunden akklimatisieren,</text><text x="360" y="638" font-size="30" text-anchor="start" font-weight="400" fill="#4a443f">Raum mind. 18 °C, 40–65 % Luftfeuchte</text><rect x="160" y="740" width="1280" height="200" fill="#f6f2ec" rx="18"/><circle cx="270" cy="840" r="46" fill="#2f7a4c"/><path d="M249.3,842 l13.799999999999999,14.72 l25.3,-28.52" fill="none" stroke="#fff" stroke-width="9.200000000000001" stroke-linejoin="round" stroke-linecap="round" /><text x="360" y="828" font-size="36" text-anchor="start" font-weight="600" fill="#1d1a17">Befestigung passend zu Raum und Nutzung:</text><text x="360" y="878" font-size="30" text-anchor="start" font-weight="400" fill="#4a443f">fixiert oder verklebt</text></svg>